<?xml version="1.0" encoding="UTF-8" standalone="no"?> <svg width="64" height="64" viewBox="0 0 64 64" fill="none" xmlns="http://www.w3.org/2000/svg">
<path d="M55.2699 19.63C55.1976 19.4831 55.1032 19.3482 54.9899 19.23L38.6999 2.94C38.4127 2.6681 38.0353 2.51147 37.6399 2.5H14.0699C12.6121 2.50264 11.2147 3.08295 10.1838 4.11383C9.1529 5.14471 8.57259 6.54212 8.56995 8V56C8.57259 57.4579 9.1529 58.8553 10.1838 59.8862C11.2147 60.917 12.6121 61.4974 14.0699 61.5H49.9299C51.3878 61.4974 52.7852 60.917 53.8161 59.8862C54.847 58.8553 55.4273 57.4579 55.4299 56V20.29C55.4292 20.0605 55.3744 19.8344 55.2699 19.63V19.63ZM39.1399 7.63L50.3099 18.79H39.1399V7.63ZM49.9299 58.5H14.0699C13.4069 58.5 12.771 58.2366 12.3022 57.7678C11.8333 57.2989 11.5699 56.663 11.5699 56V8C11.5699 7.33696 11.8333 6.70107 12.3022 6.23223C12.771 5.76339 13.4069 5.5 14.0699 5.5H36.1399V20.29C36.1399 20.6878 36.298 21.0694 36.5793 21.3507C36.8606 21.632 37.2421 21.79 37.6399 21.79H52.4299V56C52.4299 56.663 52.1666 57.2989 51.6977 57.7678C51.2289 58.2366 50.593 58.5 49.9299 58.5V58.5Z" fill="black"/>
</svg>
