<?xml version="1.0" encoding="UTF-8" standalone="no"?>
<svg
   xmlns:dc="http://purl.org/dc/elements/1.1/"
   xmlns:cc="http://creativecommons.org/ns#"
   xmlns:rdf="http://www.w3.org/1999/02/22-rdf-syntax-ns#"
   xmlns:svg="http://www.w3.org/2000/svg"
   xmlns="http://www.w3.org/2000/svg"
   xmlns:sodipodi="http://sodipodi.sourceforge.net/DTD/sodipodi-0.dtd"
   xmlns:inkscape="http://www.inkscape.org/namespaces/inkscape"
   viewBox="0 0 32 32"
   version="1.1"
   id="svg15"
   sodipodi:docname="pen_white.svg"
   inkscape:version="0.92.5 (2060ec1f9f, 2020-04-08)">
  <metadata
     id="metadata19">
    <rdf:RDF>
      <cc:Work
         rdf:about="">
        <dc:format>image/svg+xml</dc:format>
        <dc:type
           rdf:resource="http://purl.org/dc/dcmitype/StillImage" />
        <dc:title></dc:title>
      </cc:Work>
    </rdf:RDF>
  </metadata>
  <sodipodi:namedview
     pagecolor="#ffffff"
     bordercolor="#666666"
     borderopacity="1"
     objecttolerance="10"
     gridtolerance="10"
     guidetolerance="10"
     inkscape:pageopacity="0"
     inkscape:pageshadow="2"
     inkscape:window-width="796"
     inkscape:window-height="480"
     id="namedview17"
     showgrid="false"
     inkscape:zoom="7.375"
     inkscape:cx="16"
     inkscape:cy="10.576271"
     inkscape:window-x="352"
     inkscape:window-y="148"
     inkscape:window-maximized="0"
     inkscape:current-layer="svg15" />
  <defs
     id="defs4">
    <style
       id="style2">.cls-1{fill:#101820;}</style>
  </defs>
  <g
     data-name="Layer 18"
     id="Layer_18"
     style="fill:#ffffff">
    <path
       class="cls-1"
       d="M2,31a1,1,0,0,1-1-1.11l.9-8.17a1,1,0,0,1,.29-.6L21.27,2.05a3.56,3.56,0,0,1,5.05,0L30,5.68a3.56,3.56,0,0,1,0,5.05L10.88,29.8a1,1,0,0,1-.6.29L2.11,31Zm8.17-1.91h0ZM3.86,22.28l-.73,6.59,6.59-.73L28.54,9.31a1.58,1.58,0,0,0,0-2.22L24.91,3.46a1.58,1.58,0,0,0-2.22,0Z"
       id="path8"
       style="fill:#ffffff" />
    <path
       class="cls-1"
       d="M26.52,13.74a1,1,0,0,1-.7-.29L18.55,6.18A1,1,0,0,1,20,4.77L27.23,12a1,1,0,0,1,0,1.41A1,1,0,0,1,26.52,13.74Z"
       id="path10"
       style="fill:#ffffff" />
    <rect
       class="cls-1"
       height="2"
       transform="translate(-7.91 15.47) rotate(-45)"
       width="12.84"
       x="8.29"
       y="16.28"
       id="rect12"
       style="fill:#ffffff" />
  </g>
</svg>
