<svg version="1.1" id="Icons" xmlns="http://www.w3.org/2000/svg" xmlns:xlink="http://www.w3.org/1999/xlink" x="0px" y="0px" viewBox="0 0 32 32" style="enable-background:new 0 0 32 32;" xml:space="preserve">
<g>
<path d="M16,10c1.7,0,3-1.3,3-3s-1.3-3-3-3s-3,1.3-3,3S14.3,10,16,10z" id="id_113" style="fill: rgb(247, 249, 252);"></path>
<path d="M16,13c-1.7,0-3,1.3-3,3s1.3,3,3,3s3-1.3,3-3S17.7,13,16,13z" id="id_114" style="fill: rgb(250, 250, 250);"></path>
<path d="M16,22c-1.7,0-3,1.3-3,3s1.3,3,3,3s3-1.3,3-3S17.7,22,16,22z" id="id_115" style="fill: rgb(245, 245, 245);"></path>
</g>
</svg>